<?xml version="1.0" encoding="UTF-8"?>
<!DOCTYPE svg PUBLIC "-//W3C//DTD SVG 1.1//EN" "http://www.w3.org/Graphics/SVG/1.1/DTD/svg11.dtd">
<svg xmlns="http://www.w3.org/2000/svg" version="1.1" width="479px" height="105px" style="shape-rendering:geometricPrecision; text-rendering:geometricPrecision; image-rendering:optimizeQuality; fill-rule:evenodd; clip-rule:evenodd" xmlns:xlink="http://www.w3.org/1999/xlink">
<g><path style="opacity:1" fill="#fefefd" d="M -0.5,-0.5 C 14.8333,-0.5 30.1667,-0.5 45.5,-0.5C 40.4214,0.526104 35.4214,2.19277 30.5,4.5C 29.1667,10.1667 29.1667,15.8333 30.5,21.5C 49.1825,10.4562 66.0158,12.7895 81,28.5C 85.0065,25.3242 88.8398,21.9908 92.5,18.5C 83.1392,8.48973 71.8058,2.15639 58.5,-0.5C 198.5,-0.5 338.5,-0.5 478.5,-0.5C 478.5,17.1667 478.5,34.8333 478.5,52.5C 476.326,44.1841 470.826,40.1841 462,40.5C 449.457,41.8767 444.457,48.8767 447,61.5C 449.269,68.8084 454.269,72.1417 462,71.5C 467.589,71.9151 472.423,70.2484 476.5,66.5C 474.517,65.018 472.684,63.3513 471,61.5C 465.933,65.7975 461.433,65.4641 457.5,60.5C 464.313,59.5088 471.313,59.1755 478.5,59.5C 478.5,74.5 478.5,89.5 478.5,104.5C 337.5,104.5 196.5,104.5 55.5,104.5C 70.0821,103.361 82.0821,97.1946 91.5,86C 88.2065,82.3605 84.5399,79.1939 80.5,76.5C 64.8788,91.3894 47.8788,93.2228 29.5,82C 21.4547,75.744 16.6214,67.5774 15,57.5C 14.6667,43.5 14.3333,29.5 14,15.5C 6.17511,24.1473 1.34178,34.1473 -0.5,45.5C -0.5,30.1667 -0.5,14.8333 -0.5,-0.5 Z"/></g>
<g><path style="opacity:1" fill="#4dbde2" d="M 45.5,-0.5 C 49.8333,-0.5 54.1667,-0.5 58.5,-0.5C 71.8058,2.15639 83.1392,8.48973 92.5,18.5C 88.8398,21.9908 85.0065,25.3242 81,28.5C 66.0158,12.7895 49.1825,10.4562 30.5,21.5C 29.1667,15.8333 29.1667,10.1667 30.5,4.5C 35.4214,2.19277 40.4214,0.526104 45.5,-0.5 Z"/></g>
<g><path style="opacity:1" fill="#4bbce2" d="M 55.5,104.5 C 52.1667,104.5 48.8333,104.5 45.5,104.5C 19.8423,99.509 4.50899,84.1757 -0.5,58.5C -0.5,54.1667 -0.5,49.8333 -0.5,45.5C 1.34178,34.1473 6.17511,24.1473 14,15.5C 14.3333,29.5 14.6667,43.5 15,57.5C 16.6214,67.5774 21.4547,75.744 29.5,82C 47.8788,93.2228 64.8788,91.3894 80.5,76.5C 84.5399,79.1939 88.2065,82.3605 91.5,86C 82.0821,97.1946 70.0821,103.361 55.5,104.5 Z"/></g>
<g><path style="opacity:1" fill="#ffc21f" d="M 257.5,26.5 C 265.368,25.6722 267.701,28.6722 264.5,35.5C 259.368,37.8939 256.368,36.3939 255.5,31C 255.519,29.167 256.185,27.667 257.5,26.5 Z"/></g>
<g><path style="opacity:1" fill="#4cbde2" d="M 45.5,29.5 C 65.6709,28.2883 75.1709,37.6217 74,57.5C 68.2726,72.1133 57.7726,77.2799 42.5,73C 31.0387,66.231 27.2054,56.3976 31,43.5C 33.8317,36.6837 38.665,32.017 45.5,29.5 Z"/></g>
<g><path style="opacity:1" fill="#ffd36e" d="M 231.5,49.5 C 231.44,50.0431 231.107,50.3764 230.5,50.5C 229.503,43.5316 229.17,36.5316 229.5,29.5C 226.5,29.5 223.5,29.5 220.5,29.5C 220.5,43.5 220.5,57.5 220.5,71.5C 219.504,57.3431 219.171,43.0097 219.5,28.5C 223.167,28.5 226.833,28.5 230.5,28.5C 230.175,35.6866 230.509,42.6866 231.5,49.5 Z"/></g>
<g><path style="opacity:1" fill="#ffc115" d="M 231.5,49.5 C 233.962,46.5361 236.629,43.7028 239.5,41C 243.5,40.3333 247.5,40.3333 251.5,41C 247.651,44.6818 243.984,48.5151 240.5,52.5C 244.167,58.5 247.833,64.5 251.5,70.5C 247.541,71.6599 243.541,71.8265 239.5,71C 237.709,67.2486 235.543,63.7486 233,60.5C 232.333,61.1667 231.667,61.8333 231,62.5C 230.502,65.4816 230.335,68.4816 230.5,71.5C 227.167,71.5 223.833,71.5 220.5,71.5C 220.5,57.5 220.5,43.5 220.5,29.5C 223.5,29.5 226.5,29.5 229.5,29.5C 229.17,36.5316 229.503,43.5316 230.5,50.5C 231.107,50.3764 231.44,50.0431 231.5,49.5 Z"/></g>
<g><path style="opacity:1" fill="#ffc118" d="M 363.5,30.5 C 371.878,29.6263 379.211,31.9597 385.5,37.5C 383.471,39.8585 381.471,42.1918 379.5,44.5C 371.754,37.2529 364.921,37.9195 359,46.5C 356.74,58.5355 361.573,63.7022 373.5,62C 375.664,61.0857 377.664,59.919 379.5,58.5C 381.288,60.7908 383.288,62.9575 385.5,65C 374.551,74.7674 363.551,74.9341 352.5,65.5C 343.289,49.6219 346.956,37.9552 363.5,30.5 Z"/></g>
<g><path style="opacity:1" fill="#ffc117" d="M 104.5,31.5 C 113.173,31.3336 121.84,31.5002 130.5,32C 138.031,33.6201 140.531,38.1201 138,45.5C 137.07,47.5524 135.57,49.0524 133.5,50C 139.603,53.0404 141.769,57.8737 140,64.5C 138.337,66.9167 136.171,68.75 133.5,70C 123.9,71.3909 114.233,71.8909 104.5,71.5C 104.5,58.1667 104.5,44.8333 104.5,31.5 Z"/></g>
<g><path style="opacity:1" fill="#fafdfe" d="M 47.5,37.5 C 50.5,37.5 53.5,37.5 56.5,37.5C 56.5,40.8333 56.5,44.1667 56.5,47.5C 59.8333,47.5 63.1667,47.5 66.5,47.5C 66.5,50.5 66.5,53.5 66.5,56.5C 63.1667,56.5 59.8333,56.5 56.5,56.5C 56.5,59.8333 56.5,63.1667 56.5,66.5C 53.5,66.5 50.5,66.5 47.5,66.5C 47.5,63.1667 47.5,59.8333 47.5,56.5C 44.1667,56.5 40.8333,56.5 37.5,56.5C 37.5,53.5 37.5,50.5 37.5,47.5C 40.8333,47.5 44.1667,47.5 47.5,47.5C 47.5,44.1667 47.5,40.8333 47.5,37.5 Z"/></g>
<g><path style="opacity:1" fill="#fffcf6" d="M 115.5,39.5 C 119.182,39.3347 122.848,39.5014 126.5,40C 129.192,42.6324 128.859,44.9658 125.5,47C 122.183,47.4983 118.85,47.665 115.5,47.5C 115.5,44.8333 115.5,42.1667 115.5,39.5 Z"/></g>
<g><path style="opacity:1" fill="#ffc115" d="M 318.5,40.5 C 323.408,39.874 327.908,40.874 332,43.5C 332.483,42.552 332.649,41.552 332.5,40.5C 335.833,40.5 339.167,40.5 342.5,40.5C 342.667,51.505 342.5,62.505 342,73.5C 338.68,80.2507 333.18,83.584 325.5,83.5C 320.401,83.2276 315.734,81.7276 311.5,79C 312.708,76.7497 314.041,74.583 315.5,72.5C 319.936,75.5575 324.603,76.0575 329.5,74C 332.207,72.1363 333.041,69.6363 332,66.5C 322.759,72.0378 315.759,70.0378 311,60.5C 308.406,51.6599 310.906,44.9932 318.5,40.5 Z"/></g>
<g><path style="opacity:1" fill="#ffc117" d="M 154.5,40.5 C 171.01,38.1827 178.51,45.1827 177,61.5C 175.073,66.4277 171.573,69.5944 166.5,71C 149.999,73.8269 142.499,66.9936 144,50.5C 146.106,45.5573 149.606,42.224 154.5,40.5 Z"/></g>
<g><path style="opacity:1" fill="#ffc116" d="M 191.5,40.5 C 209.334,38.4948 216.501,46.1615 213,63.5C 209.171,69.3551 203.671,72.3551 196.5,72.5C 183.736,70.564 178.57,63.2307 181,50.5C 183.106,45.5573 186.606,42.224 191.5,40.5 Z"/></g>
<g><path style="opacity:1" fill="#ffc428" d="M 255.5,40.5 C 259.167,40.5 262.833,40.5 266.5,40.5C 266.5,50.8333 266.5,61.1667 266.5,71.5C 262.833,71.5 259.167,71.5 255.5,71.5C 255.5,61.1667 255.5,50.8333 255.5,40.5 Z"/></g>
<g><path style="opacity:1" fill="#ffc21d" d="M 273.5,40.5 C 277.167,40.5 280.833,40.5 284.5,40.5C 284.343,41.8734 284.51,43.2068 285,44.5C 289.091,40.6951 293.924,39.5284 299.5,41C 301.286,41.7845 302.786,42.9512 304,44.5C 305.443,53.3921 305.943,62.3921 305.5,71.5C 302.167,71.5 298.833,71.5 295.5,71.5C 295.666,65.1579 295.5,58.8246 295,52.5C 291.841,48.564 288.508,48.564 285,52.5C 284.5,58.8246 284.334,65.1579 284.5,71.5C 280.833,71.5 277.167,71.5 273.5,71.5C 273.5,61.1667 273.5,50.8333 273.5,40.5 Z"/></g>
<g><path style="opacity:1" fill="#ffc117" d="M 395.5,40.5 C 400.179,40.3342 404.845,40.5008 409.5,41C 412.196,41.6898 414.363,43.1898 416,45.5C 417.41,54.0836 417.91,62.7502 417.5,71.5C 414.167,71.5 410.833,71.5 407.5,71.5C 407.649,70.448 407.483,69.448 407,68.5C 403.101,71.9096 398.601,73.0763 393.5,72C 387.975,69.0812 386.142,64.5812 388,58.5C 388.465,57.0692 389.299,55.9025 390.5,55C 396.013,53.2082 401.68,52.0415 407.5,51.5C 406.061,49.0284 403.894,47.6951 401,47.5C 397.834,48.4224 394.667,48.9224 391.5,49C 388.478,44.1764 389.812,41.3431 395.5,40.5 Z"/></g>
<g><path style="opacity:1" fill="#ffc115" d="M 424.5,40.5 C 427.833,40.5 431.167,40.5 434.5,40.5C 434.343,41.8734 434.51,43.2068 435,44.5C 437.408,41.3799 440.574,40.0466 444.5,40.5C 444.5,43.5 444.5,46.5 444.5,49.5C 440.406,48.7046 437.239,50.038 435,53.5C 434.501,59.4908 434.334,65.4908 434.5,71.5C 431.167,71.5 427.833,71.5 424.5,71.5C 424.5,61.1667 424.5,50.8333 424.5,40.5 Z"/></g>
<g><path style="opacity:1" fill="#ffc114" d="M 478.5,52.5 C 478.5,54.5 478.5,56.5 478.5,58.5C 471.137,58.1694 463.803,58.5027 456.5,59.5C 456.624,60.1067 456.957,60.44 457.5,60.5C 461.433,65.4641 465.933,65.7975 471,61.5C 472.684,63.3513 474.517,65.018 476.5,66.5C 472.423,70.2484 467.589,71.9151 462,71.5C 454.269,72.1417 449.269,68.8084 447,61.5C 444.457,48.8767 449.457,41.8767 462,40.5C 470.826,40.1841 476.326,44.1841 478.5,52.5 Z"/></g>
<g><path style="opacity:1" fill="#fffbf4" d="M 157.5,48.5 C 165.095,48.2654 168.262,51.932 167,59.5C 162.667,66.1667 158.333,66.1667 154,59.5C 152.882,55.0767 154.049,51.41 157.5,48.5 Z"/></g>
<g><path style="opacity:1" fill="#fffbf4" d="M 194.5,48.5 C 201.606,48.1055 204.772,51.4388 204,58.5C 199.563,66.4647 195.23,66.4647 191,58.5C 189.755,54.2353 190.922,50.902 194.5,48.5 Z"/></g>
<g><path style="opacity:1" fill="#fffcf6" d="M 324.5,47.5 C 332.407,48.8188 334.574,53.1521 331,60.5C 324.653,64.1785 320.819,62.3452 319.5,55C 319.831,51.5199 321.498,49.0199 324.5,47.5 Z"/></g>
<g><path style="opacity:1" fill="#fffaef" d="M 460.5,47.5 C 465.206,46.8811 467.873,48.8811 468.5,53.5C 464.445,53.8242 460.445,53.4909 456.5,52.5C 457.16,50.1853 458.493,48.5186 460.5,47.5 Z"/></g>
<g><path style="opacity:1" fill="#fffbf3" d="M 115.5,54.5 C 118.85,54.335 122.183,54.5017 125.5,55C 130.261,57.3288 130.595,59.9954 126.5,63C 122.848,63.4986 119.182,63.6653 115.5,63.5C 115.5,60.5 115.5,57.5 115.5,54.5 Z"/></g>
<g><path style="opacity:1" fill="#fffaf0" d="M 398.5,58.5 C 401.5,58.5 404.5,58.5 407.5,58.5C 406.376,65.1451 402.876,66.8118 397,63.5C 396.36,61.4567 396.86,59.7901 398.5,58.5 Z"/></g>
<g><path style="opacity:1" fill="#ffe9af" d="M 478.5,58.5 C 478.5,58.8333 478.5,59.1667 478.5,59.5C 471.313,59.1755 464.313,59.5088 457.5,60.5C 456.957,60.44 456.624,60.1067 456.5,59.5C 463.803,58.5027 471.137,58.1694 478.5,58.5 Z"/></g>
<g><path style="opacity:1" fill="#fcfefe" d="M -0.5,58.5 C 4.50899,84.1757 19.8423,99.509 45.5,104.5C 30.1667,104.5 14.8333,104.5 -0.5,104.5C -0.5,89.1667 -0.5,73.8333 -0.5,58.5 Z"/></g>
</svg>
