<?xml version="1.0" encoding="UTF-8"?>
<!DOCTYPE svg PUBLIC "-//W3C//DTD SVG 1.1//EN" "http://www.w3.org/Graphics/SVG/1.1/DTD/svg11.dtd">
<svg xmlns="http://www.w3.org/2000/svg" version="1.1" width="200px" height="95px" style="shape-rendering:geometricPrecision; text-rendering:geometricPrecision; image-rendering:optimizeQuality; fill-rule:evenodd; clip-rule:evenodd" xmlns:xlink="http://www.w3.org/1999/xlink">
<g><path style="opacity:0.781" fill="#49bce2" d="M 90.5,-0.5 C 91.1667,-0.5 91.8333,-0.5 92.5,-0.5C 92.8333,0.833333 93.1667,0.833333 93.5,-0.5C 98.5,-0.5 103.5,-0.5 108.5,-0.5C 113.182,1.60895 117.349,4.60895 121,8.5C 121.667,9.5 121.667,10.5 121,11.5C 118.815,12.9284 116.815,14.5951 115,16.5C 106.544,7.61815 97.044,6.28481 86.5,12.5C 86.335,9.1501 86.5017,5.81677 87,2.5C 87.985,1.18586 89.1516,0.185857 90.5,-0.5 Z"/></g>
<g><path style="opacity:0.806" fill="#49bbe1" d="M 78.5,7.5 C 80.3092,15.7755 81.1425,24.4421 81,33.5C 87.9745,47.0913 98.1412,50.2579 111.5,43C 112.618,41.9264 113.618,40.7598 114.5,39.5C 117.005,41.5056 119.338,43.6723 121.5,46C 116.171,53.4965 108.837,56.9965 99.5,56.5C 86.017,55.8601 76.8503,49.1935 72,36.5C 69.2816,25.7094 71.4483,16.0428 78.5,7.5 Z"/></g>
<g><path style="opacity:0.765" fill="#49bce2" d="M 94.5,15.5 C 102.438,13.7207 108.271,16.3874 112,23.5C 113.218,35.6155 107.718,41.1155 95.5,40C 87.3302,36.1575 84.8302,29.9908 88,21.5C 90.0627,19.2659 92.2294,17.2659 94.5,15.5 Z M 97.5,21.5 C 98.6009,20.4017 99.9343,20.235 101.5,21C 100.594,22.6995 100.261,24.5328 100.5,26.5C 102.5,26.5 104.5,26.5 106.5,26.5C 106.5,27.5 106.5,28.5 106.5,29.5C 104.5,29.5 102.5,29.5 100.5,29.5C 100.261,31.4672 100.594,33.3005 101.5,35C 100.552,35.4828 99.552,35.6495 98.5,35.5C 98.5,33.5 98.5,31.5 98.5,29.5C 96.5,29.5 94.5,29.5 92.5,29.5C 92.5,28.5 92.5,27.5 92.5,26.5C 94.5,26.5 96.5,26.5 98.5,26.5C 98.7845,24.5853 98.4511,22.9187 97.5,21.5 Z"/></g>
<g><path style="opacity:0.715" fill="#fec00e" d="M 86.5,69.5 C 85.1667,69.8333 85.1667,70.1667 86.5,70.5C 86.5,76.8333 86.5,83.1667 86.5,89.5C 81.5077,88.3509 76.5077,88.1842 71.5,89C 68.471,81.7526 67.1376,81.9193 67.5,89.5C 64.9407,89.8016 62.6074,89.4682 60.5,88.5C 60.5,80.8333 60.5,73.1667 60.5,65.5C 62.6074,64.5318 64.9407,64.1984 67.5,64.5C 67.335,67.8499 67.5017,71.1832 68,74.5C 69.1667,73.3333 70.3333,72.1667 71.5,71C 74.8333,70.6667 78.1667,70.3333 81.5,70C 78.5885,66.813 79.0885,64.313 83,62.5C 85.9456,63.7861 87.1123,66.1194 86.5,69.5 Z M 78.5,72.5 C 79.8124,77.0152 79.8124,81.6819 78.5,86.5C 76.8423,83.8392 75.1756,81.1725 73.5,78.5C 75.1897,76.4807 76.8564,74.4807 78.5,72.5 Z"/></g>
<g><path style="opacity:0.769" fill="#fec00e" d="M -0.5,65.5 C 5.76241,64.872 11.7624,65.7054 17.5,68C 20.0801,70.7903 20.0801,73.6236 17.5,76.5C 17.8076,77.3081 18.3076,77.9747 19,78.5C 22.2935,71.0639 27.7935,68.8972 35.5,72C 36.6667,73.1667 37.8333,74.3333 39,75.5C 44.1667,70 50,69.1667 56.5,73C 57.8228,73.8159 58.4894,74.9826 58.5,76.5C 59.8333,78.8333 59.8333,81.1667 58.5,83.5C 54.9505,89.4248 49.9505,90.9248 43.5,88C 41.9512,86.786 40.7845,85.286 40,83.5C 33.6336,91.0099 26.967,91.3432 20,84.5C 18.3626,86.8102 16.196,88.3102 13.5,89C 8.8452,89.4992 4.17853,89.6658 -0.5,89.5C -0.5,81.5 -0.5,73.5 -0.5,65.5 Z M 5.5,71.5 C 13.323,73.0775 13.323,74.0775 5.5,74.5C 5.5,73.5 5.5,72.5 5.5,71.5 Z M 27.5,76.5 C 30.2327,76.1961 31.8994,77.3628 32.5,80C 30.5,84.6667 28.5,84.6667 26.5,80C 26.9891,78.8615 27.3225,77.6948 27.5,76.5 Z M 47.5,76.5 C 52.9137,77.9615 53.4137,80.2948 49,83.5C 46.3541,81.6332 45.8541,79.2999 47.5,76.5 Z M 5.5,79.5 C 8.1569,79.162 10.4902,79.8287 12.5,81.5C 10.2573,82.4742 7.92397,82.8076 5.5,82.5C 5.5,81.5 5.5,80.5 5.5,79.5 Z"/></g>
<g><path style="opacity:0.004" fill="#ffc117" d="M 60.5,65.5 C 60.5,73.1667 60.5,80.8333 60.5,88.5C 59.8333,86.8333 59.1667,85.1667 58.5,83.5C 59.8333,81.1667 59.8333,78.8333 58.5,76.5C 59.1667,72.8333 59.8333,69.1667 60.5,65.5 Z"/></g>
<g><path style="opacity:0.735" fill="#fec10e" d="M 136.5,65.5 C 142.109,64.4543 146.775,65.9543 150.5,70C 149.379,73.5548 147.379,74.5548 144.5,73C 136.5,72 134.5,75 138.5,82C 141.275,82.7783 143.775,82.2783 146,80.5C 147.261,80.7591 148.261,81.4258 149,82.5C 152.71,79.7398 153.21,76.5732 150.5,73C 156.499,69.1942 161.999,69.6942 167,74.5C 167.499,79.4889 167.666,84.4889 167.5,89.5C 162.734,88.7866 158.067,88.6199 153.5,89C 151.667,88.5 150.5,87.3333 150,85.5C 141.486,91.8131 134.486,90.4797 129,81.5C 127.505,74.1617 130.005,68.8284 136.5,65.5 Z M 156.5,81.5 C 157.978,81.238 159.311,81.5713 160.5,82.5C 159.833,82.8333 159.167,83.1667 158.5,83.5C 157.287,83.2528 156.62,82.5862 156.5,81.5 Z"/></g>
<g><path style="opacity:0.004" fill="#fec21b" d="M 86.5,69.5 C 87.8333,70.1667 87.8333,70.1667 86.5,69.5 Z"/></g>
<g><path style="opacity:0.754" fill="#fec10e" d="M 106.5,72.5 C 107.452,78.0748 107.786,83.7414 107.5,89.5C 105.167,89.5 102.833,89.5 100.5,89.5C 100.666,85.4862 100.499,81.4862 100,77.5C 98.6054,76.1854 97.6054,76.5188 97,78.5C 96.5014,82.1516 96.3347,85.8183 96.5,89.5C 94.1667,89.5 91.8333,89.5 89.5,89.5C 89.5,83.1667 89.5,76.8333 89.5,70.5C 93.4245,70.9546 97.2579,70.9546 101,70.5C 103.009,70.7579 104.843,71.4245 106.5,72.5 Z"/></g>
<g><path style="opacity:0.775" fill="#fec10e" d="M 124.5,94.5 C 124.167,94.5 123.833,94.5 123.5,94.5C 123.167,93.1667 122.833,93.1667 122.5,94.5C 119.167,94.5 115.833,94.5 112.5,94.5C 112.167,93.1667 111.833,93.1667 111.5,94.5C 111.167,94.5 110.833,94.5 110.5,94.5C 109.186,91.5898 109.853,89.0898 112.5,87C 108.285,83.2205 107.452,78.7205 110,73.5C 111.594,71.7029 113.594,70.7029 116,70.5C 119.742,70.9546 123.575,70.9546 127.5,70.5C 127.666,76.8421 127.5,83.1754 127,89.5C 125.906,91.0779 125.072,92.7446 124.5,94.5 Z M 116.5,76.5 C 117.873,76.3433 119.207,76.51 120.5,77C 120.507,78.5827 120.174,80.2494 119.5,82C 115.537,82.1177 114.537,80.2843 116.5,76.5 Z M 114.5,88.5 C 116.575,88.3016 118.575,88.1349 120.5,88C 118.517,89.7074 116.517,89.874 114.5,88.5 Z"/></g>
<g><path style="opacity:0.73" fill="#ffc10e" d="M 181.5,76.5 C 180.417,76.5394 179.417,76.8728 178.5,77.5C 177.675,81.1224 177.175,84.789 177,88.5C 174.619,89.435 172.119,89.7683 169.5,89.5C 169.5,83.1667 169.5,76.8333 169.5,70.5C 172.394,70.0423 174.894,70.709 177,72.5C 178.11,70.9632 179.61,70.2965 181.5,70.5C 181.5,72.5 181.5,74.5 181.5,76.5 Z"/></g>
<g><path style="opacity:0.726" fill="#ffc10e" d="M 199.5,74.5 C 199.5,77.1667 199.5,79.8333 199.5,82.5C 197.067,82.7856 197.067,83.4523 199.5,84.5C 199.5,85.1667 199.5,85.8333 199.5,86.5C 190.371,92.0914 184.038,89.9248 180.5,80C 180.989,78.8615 181.322,77.6948 181.5,76.5C 184.257,71.465 188.59,69.6317 194.5,71C 196.323,71.9973 197.99,73.1639 199.5,74.5 Z M 189.5,75.5 C 191.103,75.3118 192.437,75.8118 193.5,77C 191.833,77.6667 190.167,77.6667 188.5,77C 189.056,76.6174 189.389,76.1174 189.5,75.5 Z"/></g>
<g><path style="opacity:0.004" fill="#fec21b" d="M 106.5,71.5 C 107.833,72.1667 107.833,72.1667 106.5,71.5 Z"/></g>
</svg>
