<?xml version="1.0" standalone="no"?>
<!DOCTYPE svg PUBLIC "-//W3C//DTD SVG 20010904//EN"
 "http://www.w3.org/TR/2001/REC-SVG-20010904/DTD/svg10.dtd">
<svg version="1.0" xmlns="http://www.w3.org/2000/svg"
 width="150.000000pt" height="150.000000pt" viewBox="0 0 150.000000 150.000000"
 preserveAspectRatio="xMidYMid meet">

<g transform="translate(0.000000,150.000000) scale(0.100000,-0.100000)"
fill="#000000" stroke="none">
<path d="M490 1453 c-24 -9 -61 -46 -71 -70 -13 -36 5 -71 42 -81 31 -8 34
-12 51 -87 34 -152 35 -139 -10 -159 -25 -11 -45 -15 -55 -10 -36 22 -74 62
-80 86 -19 76 -98 96 -149 39 -20 -23 -28 -42 -28 -69 0 -52 12 -65 60 -68 30
-1 50 -9 72 -30 49 -47 50 -56 23 -131 -48 -129 -44 -123 -81 -123 -24 0 -36
6 -45 23 -17 31 -30 38 -59 31 -43 -10 -70 -43 -70 -86 0 -57 14 -78 53 -78
18 0 42 6 52 14 14 10 26 11 47 4 26 -9 28 -14 28 -64 0 -30 1 -57 3 -61 4
-13 -65 -15 -76 -4 -6 6 -23 11 -38 11 -39 0 -72 -45 -66 -88 8 -43 43 -91 74
-98 21 -6 32 0 63 35 51 55 72 53 134 -15 l48 -53 -18 -46 c-11 -30 -27 -51
-45 -61 -67 -34 -74 -101 -16 -150 27 -22 38 -25 80 -21 64 6 99 39 99 93 0
39 25 99 53 127 12 12 22 13 47 6 18 -5 49 -9 68 -9 55 0 67 -12 52 -53 -20
-54 4 -87 63 -87 34 0 62 15 103 53 36 35 44 83 15 94 -48 17 -44 26 29 62
l73 36 31 -28 c21 -19 31 -37 31 -57 0 -16 5 -36 13 -44 28 -35 139 -7 188 46
16 18 25 43 29 80 7 66 -8 83 -66 75 -33 -4 -43 -1 -65 22 -31 32 -32 45 -9
134 16 61 20 67 44 67 21 0 29 -7 42 -40 14 -37 19 -40 52 -40 42 0 90 40 101
84 10 39 -4 92 -32 126 -30 35 -56 38 -91 10 -26 -20 -72 -25 -106 -11 -15 5
-67 124 -67 152 0 4 19 19 42 34 32 21 53 28 84 26 35 -1 42 2 52 24 49 108
-65 245 -148 177 -14 -11 -23 -33 -27 -62 -4 -35 -13 -52 -41 -76 l-36 -31
-44 34 c-24 18 -47 33 -52 33 -4 0 -6 19 -3 43 4 28 13 48 29 60 34 26 32 69
-3 97 -33 26 -102 23 -133 -5 -26 -24 -26 -71 0 -85 18 -10 19 -14 7 -42 l-13
-32 -96 -3 -96 -2 -21 90 c-24 102 -25 119 -11 119 28 0 -3 101 -35 114 -19 7
-54 7 -75 -1z m78 -61 c2 -13 -2 -29 -8 -37 -9 -11 -6 -39 14 -127 15 -62 30
-119 35 -127 7 -11 21 -11 79 -1 51 8 81 9 109 1 57 -16 59 -15 72 42 6 28 14
62 17 75 5 19 2 22 -21 22 -32 0 -29 19 6 39 33 18 76 8 85 -21 4 -12 2 -24
-3 -25 -32 -11 -43 -32 -49 -95 -6 -58 -4 -68 9 -68 29 0 64 -21 81 -51 9 -16
21 -29 26 -29 4 0 26 15 48 33 21 17 52 42 68 53 23 18 27 24 17 35 -32 32 6
86 52 75 48 -12 85 -112 54 -143 -7 -7 -24 -10 -38 -7 -21 4 -41 -5 -89 -40
-34 -25 -62 -48 -62 -50 0 -2 9 -26 21 -53 11 -26 24 -66 28 -88 7 -45 22 -52
118 -54 43 -1 54 3 63 19 16 29 38 25 60 -12 27 -44 26 -90 -3 -124 -19 -22
-29 -26 -50 -20 -21 5 -27 12 -27 35 0 17 -6 31 -16 35 -22 8 -87 7 -101 -2
-6 -4 -19 -38 -28 -76 -8 -38 -20 -76 -26 -83 -9 -10 -1 -26 31 -68 24 -31 47
-58 51 -61 5 -3 22 2 39 11 37 19 50 13 50 -25 0 -53 -103 -143 -145 -126 -14
5 -16 14 -12 41 3 19 2 35 -2 35 -5 0 -29 18 -53 40 l-46 40 -40 -30 c-23 -16
-63 -35 -89 -41 -26 -6 -52 -15 -56 -19 -12 -11 20 -70 38 -70 39 0 27 -51
-19 -80 -60 -37 -118 -17 -88 31 7 10 9 32 6 49 -7 32 -11 34 -98 45 -27 4
-59 11 -72 17 -31 14 -45 2 -101 -85 -36 -56 -41 -70 -31 -86 26 -43 -28 -80
-89 -60 -67 22 -79 93 -17 101 22 3 30 14 55 78 16 41 29 77 29 80 0 3 -14 14
-30 24 -17 9 -42 35 -56 57 l-24 39 -63 -4 c-50 -4 -63 -8 -66 -23 -9 -49 -52
-58 -71 -14 -18 44 -10 85 17 89 15 2 23 -2 23 -11 0 -11 11 -14 48 -10 86 8
94 11 85 36 -4 12 -7 48 -8 79 0 64 -4 69 -61 87 -36 12 -44 11 -68 -4 -35
-23 -48 -10 -44 41 2 32 7 40 25 42 16 2 26 -4 35 -22 10 -24 16 -26 78 -26
l67 0 12 58 c7 31 24 80 37 109 29 60 26 69 -42 146 -32 36 -46 45 -62 40 -45
-11 -69 42 -35 79 33 37 83 13 83 -39 0 -10 24 -43 54 -72 l54 -53 76 38 c52
25 75 42 72 51 -25 65 -50 167 -50 206 0 40 -3 48 -22 53 -12 3 -30 4 -40 2
-28 -5 -29 30 -3 58 32 34 92 31 97 -4z"/>
<path d="M871 947 c-16 -21 -25 -74 -12 -81 6 -4 17 8 25 29 8 19 19 35 23 35
16 0 33 -24 33 -47 0 -13 5 -23 10 -23 6 0 10 14 10 30 0 52 -60 91 -89 57z"/>
<path d="M499 909 c-14 -14 -19 -30 -17 -51 3 -36 28 -52 28 -18 0 12 5 30 10
41 19 35 70 17 70 -24 0 -10 5 -15 10 -12 16 10 11 44 -10 65 -26 26 -64 26
-91 -1z"/>
<path d="M1025 860 c-3 -5 -2 -10 4 -10 5 0 13 5 16 10 3 6 2 10 -4 10 -5 0
-13 -4 -16 -10z"/>
<path d="M1015 830 c-3 -5 1 -10 10 -10 9 0 13 5 10 10 -3 6 -8 10 -10 10 -2
0 -7 -4 -10 -10z"/>
<path d="M408 803 c7 -3 16 -2 19 1 4 3 -2 6 -13 5 -11 0 -14 -3 -6 -6z"/>
<path d="M390 771 c0 -6 5 -13 10 -16 6 -3 10 1 10 9 0 9 -4 16 -10 16 -5 0
-10 -4 -10 -9z"/>
<path d="M826 745 c-54 -29 -91 -31 -160 -10 -59 18 -135 19 -170 3 -59 -26
-84 -152 -47 -234 23 -51 55 -74 101 -74 32 0 47 8 129 62 37 25 70 22 134
-12 98 -52 178 -35 217 45 25 51 25 108 1 161 -39 86 -114 107 -205 59z m79
-11 c0 -14 -7 -19 -25 -19 -30 0 -40 31 -13 38 28 7 38 2 38 -19z m-265 -18
c0 -20 -38 -30 -55 -16 -24 20 -17 30 20 30 24 0 35 -5 35 -14z m194 -24 c-14
-21 -58 -23 -62 -2 -1 10 8 20 25 26 34 13 52 1 37 -24z m-96 4 c8 -9 -10 -26
-27 -26 -18 0 -41 18 -41 33 0 9 58 2 68 -7z m147 -140 c13 -20 19 -46 16 -75
-1 -18 -45 -7 -84 21 -16 12 -50 23 -76 25 -40 4 -52 0 -95 -31 -36 -25 -53
-32 -62 -25 -15 12 -2 68 18 81 24 14 95 20 116 9 16 -8 25 -7 43 8 13 10 31
20 39 23 23 8 70 -12 85 -36z"/>
<path d="M365 550 c4 -6 11 -8 16 -5 14 9 11 15 -7 15 -8 0 -12 -5 -9 -10z"/>
<path d="M725 410 c-3 -5 1 -10 9 -10 9 0 16 5 16 10 0 6 -4 10 -9 10 -6 0
-13 -4 -16 -10z"/>
<path d="M715 370 c3 -5 10 -10 16 -10 5 0 9 5 9 10 0 6 -7 10 -16 10 -8 0
-12 -4 -9 -10z"/>
</g>
</svg>
