<?xml version="1.0" encoding="UTF-8"?>
<!DOCTYPE svg PUBLIC "-//W3C//DTD SVG 1.1//EN" "http://www.w3.org/Graphics/SVG/1.1/DTD/svg11.dtd">
<svg xmlns="http://www.w3.org/2000/svg" version="1.1" width="600px" height="300px" style="shape-rendering:geometricPrecision; text-rendering:geometricPrecision; image-rendering:optimizeQuality; fill-rule:evenodd; clip-rule:evenodd" xmlns:xlink="http://www.w3.org/1999/xlink">
<g><path style="opacity:1" fill="#fdfbf7" d="M -0.5,-0.5 C 199.5,-0.5 399.5,-0.5 599.5,-0.5C 599.5,40.1667 599.5,80.8333 599.5,121.5C 598.206,122.29 597.039,123.29 596,124.5C 594.667,121.833 593.333,121.833 592,124.5C 590.667,121.833 589.333,121.833 588,124.5C 586.667,121.833 585.333,121.833 584,124.5C 582.667,121.833 581.333,121.833 580,124.5C 578.667,121.833 577.333,121.833 576,124.5C 574.667,121.833 573.333,121.833 572,124.5C 570.667,121.833 569.333,121.833 568,124.5C 566.667,121.833 565.333,121.833 564,124.5C 562.667,121.833 561.333,121.833 560,124.5C 558.667,121.833 557.333,121.833 556,124.5C 554.667,121.833 553.333,121.833 552,124.5C 550.667,121.833 549.333,121.833 548,124.5C 546.667,121.833 545.333,121.833 544,124.5C 542.667,121.833 541.333,121.833 540,124.5C 538.667,121.833 537.333,121.833 536,124.5C 534.667,121.833 533.333,121.833 532,124.5C 530.667,121.833 529.333,121.833 528,124.5C 526.667,121.833 525.333,121.833 524,124.5C 522.667,121.833 521.333,121.833 520,124.5C 518.667,121.833 517.333,121.833 516,124.5C 514.667,121.833 513.333,121.833 512,124.5C 511,123.5 510,122.5 509,121.5C 507.494,124.474 505.828,124.807 504,122.5C 502.667,125.167 501.333,125.167 500,122.5C 498.667,125.167 497.333,125.167 496,122.5C 494.667,125.167 493.333,125.167 492,122.5C 490.667,125.167 489.333,125.167 488,122.5C 486.667,125.167 485.333,125.167 484,122.5C 482.667,125.167 481.333,125.167 480,122.5C 478.667,125.167 477.333,125.167 476,122.5C 474.667,125.167 473.333,125.167 472,122.5C 470.667,125.167 469.333,125.167 468,122.5C 466.667,125.167 465.333,125.167 464,122.5C 462.667,125.167 461.333,125.167 460,122.5C 458.667,125.167 457.333,125.167 456,122.5C 454.667,125.167 453.333,125.167 452,122.5C 450.667,125.167 449.333,125.167 448,122.5C 446.667,125.167 445.333,125.167 444,122.5C 442.667,125.167 441.333,125.167 440,122.5C 439.333,123.167 438.667,123.833 438,124.5C 436.961,123.29 435.794,122.29 434.5,121.5C 422.217,83.7086 397.55,57.2086 360.5,42C 319.61,25.9437 278.61,25.6104 237.5,41C 200.886,58.1128 176.553,85.9461 164.5,124.5C 162.932,122.069 161.432,122.069 160,124.5C 158.667,121.833 157.333,121.833 156,124.5C 154.667,121.833 153.333,121.833 152,124.5C 150.667,121.833 149.333,121.833 148,124.5C 146.667,121.833 145.333,121.833 144,124.5C 142.667,121.833 141.333,121.833 140,124.5C 138.667,121.833 137.333,121.833 136,124.5C 134.667,121.833 133.333,121.833 132,124.5C 130.667,121.833 129.333,121.833 128,124.5C 126.667,121.833 125.333,121.833 124,124.5C 122.667,121.833 121.333,121.833 120,124.5C 118.667,121.833 117.333,121.833 116,124.5C 114.667,121.833 113.333,121.833 112,124.5C 110.667,121.833 109.333,121.833 108,124.5C 106.667,121.833 105.333,121.833 104,124.5C 102.667,121.833 101.333,121.833 100,124.5C 98.6667,121.833 97.3333,121.833 96,124.5C 94.6667,121.833 93.3333,121.833 92,124.5C 90.6667,121.833 89.3333,121.833 88,124.5C 86.6667,121.833 85.3333,121.833 84,124.5C 82.6667,121.833 81.3333,121.833 80,124.5C 78.6667,121.833 77.3333,121.833 76,124.5C 74.6667,121.833 73.3333,121.833 72,124.5C 70.6667,121.833 69.3333,121.833 68,124.5C 66.6667,121.833 65.3333,121.833 64,124.5C 62.6667,121.833 61.3333,121.833 60,124.5C 58.6667,121.833 57.3333,121.833 56,124.5C 54.6667,121.833 53.3333,121.833 52,124.5C 50.6667,121.833 49.3333,121.833 48,124.5C 46.6667,121.833 45.3333,121.833 44,124.5C 42.6667,121.833 41.3333,121.833 40,124.5C 38.6667,121.833 37.3333,121.833 36,124.5C 34.6667,121.833 33.3333,121.833 32,124.5C 30.6667,121.833 29.3333,121.833 28,124.5C 26.6667,121.833 25.3333,121.833 24,124.5C 22.6667,121.833 21.3333,121.833 20,124.5C 18.6667,121.833 17.3333,121.833 16,124.5C 14.6667,121.833 13.3333,121.833 12,124.5C 10.6667,121.833 9.33333,121.833 8,124.5C 6.66667,121.833 5.33333,121.833 4,124.5C 2.56818,122.069 1.06818,122.069 -0.5,124.5C -0.5,82.8333 -0.5,41.1667 -0.5,-0.5 Z"/></g>
<g><path style="opacity:1" fill="#4bbce1" d="M 434.5,121.5 C 435.581,136.146 435.747,150.812 435,165.5C 433.455,174.303 430.622,182.636 426.5,190.5C 417.744,206.248 404.744,216.915 387.5,222.5C 386.818,221.757 386.151,221.091 385.5,220.5C 383.025,214.219 379.525,208.553 375,203.5C 367.97,196.135 360.636,189.135 353,182.5C 350.815,173.248 352.982,165.248 359.5,158.5C 365.263,162.357 371.596,163.857 378.5,163C 380.317,161.2 381.484,159.034 382,156.5C 383.982,149.238 385.649,141.905 387,134.5C 389.759,134.043 391.593,132.543 392.5,130C 389.985,124.478 386.819,119.311 383,114.5C 385.504,99.3512 380.671,87.1846 368.5,78C 370.367,77.2888 371.867,77.7888 373,79.5C 373.667,78.5 373.667,77.5 373,76.5C 366.522,71.0138 359.022,67.8471 350.5,67C 341.443,66.672 332.443,67.3387 323.5,69C 313.928,71.7386 307.928,77.9052 305.5,87.5C 303.389,88.6046 302.055,90.2712 301.5,92.5C 298.527,94.1468 295.86,96.1468 293.5,98.5C 287.182,100.992 281.182,103.992 275.5,107.5C 273.447,107.402 271.78,108.069 270.5,109.5C 268.488,110.014 266.488,110.18 264.5,110C 252.546,90.96 236.212,85.96 215.5,95C 200.888,103.729 193.721,116.562 194,133.5C 195.42,135.422 197.253,136.755 199.5,137.5C 198.406,145.61 196.406,153.61 193.5,161.5C 194.75,168.515 196.917,175.182 200,181.5C 200.658,200.844 201.491,220.178 202.5,239.5C 185.035,225.263 173.035,207.263 166.5,185.5C 162.096,165.297 161.429,144.964 164.5,124.5C 176.553,85.9461 200.886,58.1128 237.5,41C 278.61,25.6104 319.61,25.9437 360.5,42C 397.55,57.2086 422.217,83.7086 434.5,121.5 Z"/></g>
<g><path style="opacity:1" fill="#fefefe" d="M 385.5,220.5 C 384.77,222.045 383.437,222.878 381.5,223C 368.749,223.852 356.416,225.519 344.5,228C 333.145,234.413 322.145,241.08 311.5,248C 305.203,250.152 299.203,252.818 293.5,256C 287.326,258.226 280.993,259.726 274.5,260.5C 275.209,259.596 276.209,259.263 277.5,259.5C 276.599,251.024 275.932,242.524 275.5,234C 277.129,210.738 286.129,190.738 302.5,174C 305.029,171.971 307.696,170.138 310.5,168.5C 311.63,167.378 312.297,166.044 312.5,164.5C 320.243,155.757 321.41,146.09 316,135.5C 302.594,125.454 297.094,112.12 299.5,95.5C 301.698,93.9019 304.031,92.5686 306.5,91.5C 301.82,108.287 307.153,120.787 322.5,129C 332.952,131.387 342.285,129.054 350.5,122C 369.282,121.625 377.116,112.125 374,93.5C 369.329,82.5035 361.162,75.3368 349.5,72C 342.833,71.3333 336.167,71.3333 329.5,72C 321.312,74.0405 314.978,78.5405 310.5,85.5C 307.81,88.1846 304.81,90.5179 301.5,92.5C 302.055,90.2712 303.389,88.6046 305.5,87.5C 307.928,77.9052 313.928,71.7386 323.5,69C 332.443,67.3387 341.443,66.672 350.5,67C 359.022,67.8471 366.522,71.0138 373,76.5C 373.667,77.5 373.667,78.5 373,79.5C 371.867,77.7888 370.367,77.2888 368.5,78C 380.671,87.1846 385.504,99.3512 383,114.5C 386.819,119.311 389.985,124.478 392.5,130C 391.593,132.543 389.759,134.043 387,134.5C 385.649,141.905 383.982,149.238 382,156.5C 381.484,159.034 380.317,161.2 378.5,163C 371.596,163.857 365.263,162.357 359.5,158.5C 352.982,165.248 350.815,173.248 353,182.5C 360.636,189.135 367.97,196.135 375,203.5C 379.525,208.553 383.025,214.219 385.5,220.5 Z"/></g>
<g><path style="opacity:1" fill="#50bcdf" d="M 306.5,91.5 C 309.167,89.1667 311.833,86.8333 314.5,84.5C 313.167,84.8333 311.833,85.1667 310.5,85.5C 314.978,78.5405 321.312,74.0405 329.5,72C 336.167,71.3333 342.833,71.3333 349.5,72C 361.162,75.3368 369.329,82.5035 374,93.5C 377.116,112.125 369.282,121.625 350.5,122C 342.285,129.054 332.952,131.387 322.5,129C 307.153,120.787 301.82,108.287 306.5,91.5 Z"/></g>
<g><path style="opacity:1" fill="#c4b152" d="M 354.5,80.5 C 347.319,76.7891 339.653,75.6225 331.5,77C 326.7,78.5692 322.034,80.4026 317.5,82.5C 326.695,75.2767 337.028,73.11 348.5,76C 351.106,76.7918 353.106,78.2918 354.5,80.5 Z"/></g>
<g><path style="opacity:1" fill="#c8b14d" d="M 317.5,82.5 C 317.027,83.9063 316.027,84.573 314.5,84.5C 314.973,83.0937 315.973,82.427 317.5,82.5 Z"/></g>
<g><path style="opacity:1" fill="#daaf3c" d="M 354.5,80.5 C 356.017,80.5106 357.184,81.1772 358,82.5C 363.1,88.6476 364.767,95.6476 363,103.5C 362.576,106.025 361.41,108.025 359.5,109.5C 364.631,98.618 362.964,88.9513 354.5,80.5 Z"/></g>
<g><path style="opacity:1" fill="#fdac05" d="M 270.5,109.5 C 269.22,110.931 267.553,111.598 265.5,111.5C 266.375,119.585 269.208,126.918 274,133.5C 281.884,141.854 291.05,148.354 301.5,153C 305.37,156.702 309.037,160.536 312.5,164.5C 312.297,166.044 311.63,167.378 310.5,168.5C 307.696,170.138 305.029,171.971 302.5,174C 286.129,190.738 277.129,210.738 275.5,234C 275.932,242.524 276.599,251.024 277.5,259.5C 276.209,259.263 275.209,259.596 274.5,260.5C 247.286,263.979 223.286,256.979 202.5,239.5C 201.491,220.178 200.658,200.844 200,181.5C 196.917,175.182 194.75,168.515 193.5,161.5C 196.406,153.61 198.406,145.61 199.5,137.5C 197.253,136.755 195.42,135.422 194,133.5C 193.721,116.562 200.888,103.729 215.5,95C 236.212,85.96 252.546,90.96 264.5,110C 266.488,110.18 268.488,110.014 270.5,109.5 Z"/></g>
<g><path style="opacity:1" fill="#ebb946" d="M 314.5,84.5 C 311.833,86.8333 309.167,89.1667 306.5,91.5C 304.031,92.5686 301.698,93.9019 299.5,95.5C 297.784,97.0248 295.784,98.0248 293.5,98.5C 295.86,96.1468 298.527,94.1468 301.5,92.5C 304.81,90.5179 307.81,88.1846 310.5,85.5C 311.833,85.1667 313.167,84.8333 314.5,84.5 Z"/></g>
<g><path style="opacity:1" fill="#dfae32" d="M 347.5,106.5 C 351.273,96.1003 347.606,91.267 336.5,92C 334.308,92.926 332.308,94.0927 330.5,95.5C 331.031,93.3763 332.365,91.8763 334.5,91C 345.995,88.5032 351.162,93.0032 350,104.5C 349.292,105.381 348.458,106.047 347.5,106.5 Z"/></g>
<g><path style="opacity:1" fill="#68bac9" d="M 232.5,94.5 C 241.598,94.0637 248.265,97.7303 252.5,105.5C 248.473,103.487 244.473,101.487 240.5,99.5C 239.508,99.6716 238.842,99.3382 238.5,98.5C 236.23,97.4548 234.23,96.1214 232.5,94.5 Z"/></g>
<g><path style="opacity:1" fill="#9db47f" d="M 232.5,94.5 C 234.23,96.1214 236.23,97.4548 238.5,98.5C 233.881,97.6864 229.214,97.3531 224.5,97.5C 223.448,95.3449 224.114,95.0116 226.5,96.5C 228.45,95.6279 230.45,94.9612 232.5,94.5 Z"/></g>
<g><path style="opacity:1" fill="#4dbce0" d="M 299.5,95.5 C 297.094,112.12 302.594,125.454 316,135.5C 321.41,146.09 320.243,155.757 312.5,164.5C 309.037,160.536 305.37,156.702 301.5,153C 291.05,148.354 281.884,141.854 274,133.5C 269.208,126.918 266.375,119.585 265.5,111.5C 267.553,111.598 269.22,110.931 270.5,109.5C 272.698,109.88 274.365,109.213 275.5,107.5C 282.086,105.54 288.086,102.54 293.5,98.5C 295.784,98.0248 297.784,97.0248 299.5,95.5 Z"/></g>
<g><path style="opacity:1" fill="#52bbdb" d="M 222.5,97.5 C 223.167,97.5 223.833,97.5 224.5,97.5C 229.214,97.3531 233.881,97.6864 238.5,98.5C 238.842,99.3382 239.508,99.6716 240.5,99.5C 240.611,100.117 240.944,100.617 241.5,101C 240.584,101.278 239.918,101.778 239.5,102.5C 237.621,102.607 237.288,102.107 238.5,101C 235.112,100.341 231.779,100.508 228.5,101.5C 224.424,102.144 220.59,103.477 217,105.5C 216.536,104.906 216.369,104.239 216.5,103.5C 218.833,101.833 220.833,99.8333 222.5,97.5 Z"/></g>
<g><path style="opacity:1" fill="#9fb47c" d="M 222.5,97.5 C 220.833,99.8333 218.833,101.833 216.5,103.5C 216.557,102.391 216.89,101.391 217.5,100.5C 218.387,97.5675 220.054,96.5675 222.5,97.5 Z"/></g>
<g><path style="opacity:1" fill="#e8ae29" d="M 337.5,98.5 C 339.879,95.8598 342.379,95.8598 345,98.5C 346.5,103.667 344.667,105.5 339.5,104C 337.833,100.667 338.833,99.3333 342.5,100C 344.051,103.36 344.551,103.193 344,99.5C 342.158,97.1656 339.991,96.8323 337.5,98.5 Z"/></g>
<g><path style="opacity:1" fill="#57bbd6" d="M 217.5,100.5 C 216.89,101.391 216.557,102.391 216.5,103.5C 215.5,103.833 214.833,104.5 214.5,105.5C 213.378,106.947 211.878,107.947 210,108.5C 209.7,106.934 210.2,105.601 211.5,104.5C 213.147,102.674 215.147,101.34 217.5,100.5 Z"/></g>
<g><path style="opacity:1" fill="#d6af3b" d="M 293.5,98.5 C 288.086,102.54 282.086,105.54 275.5,107.5C 281.182,103.992 287.182,100.992 293.5,98.5 Z"/></g>
<g><path style="opacity:1" fill="#5cbad3" d="M 253.5,110.5 C 253.657,111.873 253.49,113.207 253,114.5C 252.722,113.584 252.222,112.918 251.5,112.5C 251.631,111.761 251.464,111.094 251,110.5C 249.316,112.351 247.483,114.018 245.5,115.5C 244.808,114.975 244.308,114.308 244,113.5C 243.685,115.586 243.185,117.586 242.5,119.5C 241.222,119.218 240.222,118.551 239.5,117.5C 237.75,116.341 236.75,114.674 236.5,112.5C 237.15,112.196 237.817,111.863 238.5,111.5C 239.281,112.729 239.781,114.062 240,115.5C 241.118,112.025 241.285,108.359 240.5,104.5C 244.526,104.677 247.359,106.677 249,110.5C 250.284,109.428 250.617,108.095 250,106.5C 250.949,108.093 252.115,109.426 253.5,110.5 Z"/></g>
<g><path style="opacity:1" fill="#d9af39" d="M 337.5,98.5 C 336.187,106.503 339.52,109.169 347.5,106.5C 345.022,109.699 342.022,110.199 338.5,108C 335.021,105.005 334.688,101.839 337.5,98.5 Z"/></g>
<g><path style="opacity:1" fill="#98b58c" d="M 228.5,101.5 C 227.047,102.825 227.381,103.658 229.5,104C 226.224,105.692 222.891,106.859 219.5,107.5C 218.222,107.782 217.222,108.449 216.5,109.5C 216.34,107.847 215.674,106.514 214.5,105.5C 214.833,104.5 215.5,103.833 216.5,103.5C 216.369,104.239 216.536,104.906 217,105.5C 220.59,103.477 224.424,102.144 228.5,101.5 Z"/></g>
<g><path style="opacity:1" fill="#e3ae2d" d="M 239.5,102.5 C 240.547,103.078 240.38,103.744 239,104.5C 237.384,103.199 235.884,103.199 234.5,104.5C 231.774,104.264 229.441,105.097 227.5,107C 228.899,107.595 230.232,107.428 231.5,106.5C 232.795,107.098 234.128,107.598 235.5,108C 233.292,108.191 231.292,108.691 229.5,109.5C 228.167,109.833 226.833,110.167 225.5,110.5C 226.538,108.892 225.871,107.892 223.5,107.5C 222.265,108.34 221.265,109.34 220.5,110.5C 220.5,110.167 220.5,109.833 220.5,109.5C 220.672,108.508 220.338,107.842 219.5,107.5C 222.891,106.859 226.224,105.692 229.5,104C 227.381,103.658 227.047,102.825 228.5,101.5C 231.779,100.508 235.112,100.341 238.5,101C 237.288,102.107 237.621,102.607 239.5,102.5 Z"/></g>
<g><path style="opacity:1" fill="#d0b048" d="M 275.5,107.5 C 274.365,109.213 272.698,109.88 270.5,109.5C 271.78,108.069 273.447,107.402 275.5,107.5 Z"/></g>
<g><path style="opacity:1" fill="#83b7a8" d="M 234.5,104.5 C 235.565,106.525 236.898,108.358 238.5,110C 237.244,110.417 236.577,111.25 236.5,112.5C 234.562,110.755 232.229,109.755 229.5,109.5C 231.292,108.691 233.292,108.191 235.5,108C 234.128,107.598 232.795,107.098 231.5,106.5C 230.232,107.428 228.899,107.595 227.5,107C 229.441,105.097 231.774,104.264 234.5,104.5 Z"/></g>
<g><path style="opacity:1" fill="#c3b151" d="M 240.5,99.5 C 244.473,101.487 248.473,103.487 252.5,105.5C 252.81,106.738 253.31,106.738 254,105.5C 254.464,106.094 254.631,106.761 254.5,107.5C 253.596,108.209 253.263,109.209 253.5,110.5C 252.115,109.426 250.949,108.093 250,106.5C 250.617,108.095 250.284,109.428 249,110.5C 247.359,106.677 244.526,104.677 240.5,104.5C 241.285,108.359 241.118,112.025 240,115.5C 239.781,114.062 239.281,112.729 238.5,111.5C 237.817,111.863 237.15,112.196 236.5,112.5C 236.577,111.25 237.244,110.417 238.5,110C 236.898,108.358 235.565,106.525 234.5,104.5C 235.884,103.199 237.384,103.199 239,104.5C 240.38,103.744 240.547,103.078 239.5,102.5C 239.918,101.778 240.584,101.278 241.5,101C 240.944,100.617 240.611,100.117 240.5,99.5 Z"/></g>
<g><path style="opacity:1" fill="#5cbad1" d="M 220.5,109.5 C 220.5,109.833 220.5,110.167 220.5,110.5C 218.582,113.026 216.249,115.026 213.5,116.5C 214.833,113.167 217.167,110.833 220.5,109.5 Z"/></g>
<g><path style="opacity:1" fill="#91b695" d="M 254.5,107.5 C 257.451,112.252 258.451,117.252 257.5,122.5C 257.737,121.209 257.404,120.209 256.5,119.5C 255.295,118.328 255.295,116.995 256.5,115.5C 255.304,113.855 254.304,112.189 253.5,110.5C 253.263,109.209 253.596,108.209 254.5,107.5 Z"/></g>
<g><path style="opacity:1" fill="#57bbd5" d="M 251.5,117.5 C 252.72,119.05 252.72,120.716 251.5,122.5C 249.983,122.511 248.816,123.177 248,124.5C 248.066,121.7 249.233,119.367 251.5,117.5 Z"/></g>
<g><path style="opacity:1" fill="#cfb043" d="M 330.5,95.5 C 326.591,111.434 332.924,118.601 349.5,117C 353.276,115.053 356.61,112.553 359.5,109.5C 352.951,119.733 344.285,121.9 333.5,116C 327.947,111.382 326.114,105.549 328,98.5C 328.377,97.0577 329.21,96.0577 330.5,95.5 Z"/></g>
<g><path style="opacity:1" fill="#c0b159" d="M 253.5,110.5 C 254.304,112.189 255.304,113.855 256.5,115.5C 255.295,116.995 255.295,118.328 256.5,119.5C 254.762,121.921 253.429,124.588 252.5,127.5C 250.121,126.438 250.121,125.105 252.5,123.5C 252.376,122.893 252.043,122.56 251.5,122.5C 252.72,120.716 252.72,119.05 251.5,117.5C 251.5,115.833 251.5,114.167 251.5,112.5C 252.222,112.918 252.722,113.584 253,114.5C 253.49,113.207 253.657,111.873 253.5,110.5 Z"/></g>
<g><path style="opacity:1" fill="#59bbd5" d="M 242.5,128.5 C 241.391,128.557 240.391,128.89 239.5,129.5C 239.082,128.778 238.416,128.278 237.5,128C 239.095,125.898 241.095,124.398 243.5,123.5C 244.423,122.697 245.423,122.53 246.5,123C 244.536,124.451 243.203,126.284 242.5,128.5 Z"/></g>
<g><path style="opacity:1" fill="#5bbad4" d="M 202.5,122.5 C 202.751,124.17 203.418,125.67 204.5,127C 203.627,128.045 202.627,128.878 201.5,129.5C 201.198,126.941 201.532,124.607 202.5,122.5 Z"/></g>
<g><path style="opacity:1" fill="#91b693" d="M 207.5,123.5 C 209.019,124.41 210.685,125.243 212.5,126C 211.135,127.682 209.635,127.849 208,126.5C 207.722,127.416 207.222,128.082 206.5,128.5C 206.579,127.07 206.246,125.736 205.5,124.5C 205.957,123.702 206.624,123.369 207.5,123.5 Z"/></g>
<g><path style="opacity:1" fill="#9bb58c" d="M 251.5,112.5 C 251.5,114.167 251.5,115.833 251.5,117.5C 249.233,119.367 248.066,121.7 248,124.5C 248.816,123.177 249.983,122.511 251.5,122.5C 252.043,122.56 252.376,122.893 252.5,123.5C 250.121,125.105 250.121,126.438 252.5,127.5C 251.812,130.057 250.646,132.391 249,134.5C 249.333,132.5 249.667,130.5 250,128.5C 244.9,133.847 243.734,133.68 246.5,128C 245.181,127.805 243.847,127.972 242.5,128.5C 243.203,126.284 244.536,124.451 246.5,123C 245.423,122.53 244.423,122.697 243.5,123.5C 241.507,122.528 241.174,121.195 242.5,119.5C 243.185,117.586 243.685,115.586 244,113.5C 244.308,114.308 244.808,114.975 245.5,115.5C 247.483,114.018 249.316,112.351 251,110.5C 251.464,111.094 251.631,111.761 251.5,112.5 Z"/></g>
<g><path style="opacity:1" fill="#52bbda" d="M 248.5,114.5 C 249.589,117.662 248.422,119.996 245,121.5C 244.647,120.328 244.813,119.162 245.5,118C 246.544,116.826 247.544,115.659 248.5,114.5 Z"/></g>
<g><path style="opacity:1" fill="#d0b045" d="M 225.5,110.5 C 223.673,111.932 222.006,113.599 220.5,115.5C 220.833,115.833 221.167,116.167 221.5,116.5C 222.265,115.388 223.265,114.721 224.5,114.5C 225.975,112.59 227.975,111.424 230.5,111C 229.944,110.617 229.611,110.117 229.5,109.5C 232.229,109.755 234.562,110.755 236.5,112.5C 236.75,114.674 237.75,116.341 239.5,117.5C 237.465,117.68 235.465,118.18 233.5,119C 234.833,119.667 234.833,120.333 233.5,121C 234.167,121.333 234.833,121.667 235.5,122C 233.384,123.171 232.718,124.671 233.5,126.5C 231.855,127.696 230.189,128.696 228.5,129.5C 225.163,131.354 224.163,130.687 225.5,127.5C 226.552,127.649 227.552,127.483 228.5,127C 229.833,126.333 229.833,125.667 228.5,125C 229.624,124.751 230.624,124.251 231.5,123.5C 231.167,123.167 230.833,122.833 230.5,122.5C 227.501,123.476 225.168,125.142 223.5,127.5C 223.167,127.5 222.833,127.5 222.5,127.5C 222.265,126.903 221.765,126.57 221,126.5C 215.037,127.892 215.204,128.559 221.5,128.5C 222.954,129.52 223.287,130.687 222.5,132C 224.126,131.805 225.793,131.805 227.5,132C 227.167,133 226.833,134 226.5,135C 228.5,135.333 230.5,135.667 232.5,136C 229.964,136.186 227.631,136.686 225.5,137.5C 222.167,137.833 218.833,138.167 215.5,138.5C 218.212,137.641 220.878,136.475 223.5,135C 221.575,133.405 219.575,133.238 217.5,134.5C 215.226,134.03 213.226,133.03 211.5,131.5C 210.702,131.957 210.369,132.624 210.5,133.5C 208.793,132.127 207.46,130.461 206.5,128.5C 207.222,128.082 207.722,127.416 208,126.5C 209.635,127.849 211.135,127.682 212.5,126C 210.685,125.243 209.019,124.41 207.5,123.5C 208.167,123.5 208.5,123.167 208.5,122.5C 210.466,121.745 210.8,120.579 209.5,119C 210.094,118.536 210.761,118.369 211.5,118.5C 213.184,119.496 214.184,121.162 214.5,123.5C 215.354,122.478 216.354,121.645 217.5,121C 217.167,120.667 216.833,120.333 216.5,120C 220.512,115.038 220.012,114.538 215,118.5C 214.283,117.956 213.783,117.289 213.5,116.5C 216.249,115.026 218.582,113.026 220.5,110.5C 221.265,109.34 222.265,108.34 223.5,107.5C 225.871,107.892 226.538,108.892 225.5,110.5 Z"/></g>
<g><path style="opacity:1" fill="#53bbd9" d="M 222.5,127.5 C 221.833,127.5 221.5,127.833 221.5,128.5C 215.204,128.559 215.037,127.892 221,126.5C 221.765,126.57 222.265,126.903 222.5,127.5 Z"/></g>
<g><path style="opacity:1" fill="#69bac8" d="M 225.5,127.5 C 224.833,127.5 224.167,127.5 223.5,127.5C 225.168,125.142 227.501,123.476 230.5,122.5C 230.833,122.833 231.167,123.167 231.5,123.5C 230.624,124.251 229.624,124.751 228.5,125C 229.833,125.667 229.833,126.333 228.5,127C 227.552,127.483 226.552,127.649 225.5,127.5 Z"/></g>
<g><path style="opacity:1" fill="#59bbd2" d="M 218.5,123.5 C 220.103,123.312 221.437,123.812 222.5,125C 220.833,125.667 219.167,125.667 217.5,125C 218.056,124.617 218.389,124.117 218.5,123.5 Z"/></g>
<g><path style="opacity:1" fill="#60bacc" d="M 224.5,114.5 C 231.531,114.519 231.864,115.019 225.5,116C 226.5,116.333 227.5,116.667 228.5,117C 226.664,118.419 224.664,119.586 222.5,120.5C 221.614,119.675 221.281,118.675 221.5,117.5C 222.552,117.649 223.552,117.483 224.5,117C 223.402,116.23 223.402,115.397 224.5,114.5 Z"/></g>
<g><path style="opacity:1" fill="#7bb8b0" d="M 229.5,109.5 C 229.611,110.117 229.944,110.617 230.5,111C 227.975,111.424 225.975,112.59 224.5,114.5C 223.265,114.721 222.265,115.388 221.5,116.5C 221.167,116.167 220.833,115.833 220.5,115.5C 222.006,113.599 223.673,111.932 225.5,110.5C 226.833,110.167 228.167,109.833 229.5,109.5 Z"/></g>
<g><path style="opacity:1" fill="#b7b263" d="M 239.5,117.5 C 240.222,118.551 241.222,119.218 242.5,119.5C 241.174,121.195 241.507,122.528 243.5,123.5C 241.095,124.398 239.095,125.898 237.5,128C 238.416,128.278 239.082,128.778 239.5,129.5C 236.774,129.264 234.441,130.097 232.5,132C 233.094,132.464 233.761,132.631 234.5,132.5C 232.855,134.81 230.855,134.977 228.5,133C 229.167,132.667 229.833,132.333 230.5,132C 229.244,131.583 228.577,130.75 228.5,129.5C 230.189,128.696 231.855,127.696 233.5,126.5C 232.718,124.671 233.384,123.171 235.5,122C 234.833,121.667 234.167,121.333 233.5,121C 234.833,120.333 234.833,119.667 233.5,119C 235.465,118.18 237.465,117.68 239.5,117.5 Z"/></g>
<g><path style="opacity:1" fill="#fafcfa" d="M 164.5,124.5 C 161.429,144.964 162.096,165.297 166.5,185.5C 165.12,186.706 163.953,186.373 163,184.5C 162.167,185.333 161.333,186.167 160.5,187C 162.833,189.333 165.167,191.667 167.5,194C 166.251,195.824 165.085,195.657 164,193.5C 162.667,196.167 161.333,196.167 160,193.5C 158.667,196.167 157.333,196.167 156,193.5C 154.667,196.167 153.333,196.167 152,193.5C 150.667,196.167 149.333,196.167 148,193.5C 146.667,196.167 145.333,196.167 144,193.5C 142.667,196.167 141.333,196.167 140,193.5C 138.667,196.167 137.333,196.167 136,193.5C 134.667,196.167 133.333,196.167 132,193.5C 130.667,196.167 129.333,196.167 128,193.5C 126.667,196.167 125.333,196.167 124,193.5C 122.667,196.167 121.333,196.167 120,193.5C 118.667,196.167 117.333,196.167 116,193.5C 114.667,196.167 113.333,196.167 112,193.5C 110.667,196.167 109.333,196.167 108,193.5C 106.667,196.167 105.333,196.167 104,193.5C 102.667,196.167 101.333,196.167 100,193.5C 98.6667,196.167 97.3333,196.167 96,193.5C 94.6667,196.167 93.3333,196.167 92,193.5C 90.6667,196.167 89.3333,196.167 88,193.5C 86.6667,196.167 85.3333,196.167 84,193.5C 82.6667,196.167 81.3333,196.167 80,193.5C 78.6667,196.167 77.3333,196.167 76,193.5C 74.6667,196.167 73.3333,196.167 72,193.5C 70.6667,196.167 69.3333,196.167 68,193.5C 66.6667,196.167 65.3333,196.167 64,193.5C 62.6667,196.167 61.3333,196.167 60,193.5C 58.6667,196.167 57.3333,196.167 56,193.5C 54.6667,196.167 53.3333,196.167 52,193.5C 50.6667,196.167 49.3333,196.167 48,193.5C 46.6667,196.167 45.3333,196.167 44,193.5C 42.6667,196.167 41.3333,196.167 40,193.5C 38.6667,196.167 37.3333,196.167 36,193.5C 34.6667,196.167 33.3333,196.167 32,193.5C 30.6667,196.167 29.3333,196.167 28,193.5C 26.6667,196.167 25.3333,196.167 24,193.5C 22.6667,196.167 21.3333,196.167 20,193.5C 18.6667,196.167 17.3333,196.167 16,193.5C 14.6667,196.167 13.3333,196.167 12,193.5C 10.6667,196.167 9.33333,196.167 8,193.5C 6.66667,196.167 5.33333,196.167 4,193.5C 2.56818,195.931 1.06818,195.931 -0.5,193.5C -0.5,170.5 -0.5,147.5 -0.5,124.5C 1.06818,122.069 2.56818,122.069 4,124.5C 5.33333,121.833 6.66667,121.833 8,124.5C 9.33333,121.833 10.6667,121.833 12,124.5C 13.3333,121.833 14.6667,121.833 16,124.5C 17.3333,121.833 18.6667,121.833 20,124.5C 21.3333,121.833 22.6667,121.833 24,124.5C 25.3333,121.833 26.6667,121.833 28,124.5C 29.3333,121.833 30.6667,121.833 32,124.5C 33.3333,121.833 34.6667,121.833 36,124.5C 37.3333,121.833 38.6667,121.833 40,124.5C 41.3333,121.833 42.6667,121.833 44,124.5C 45.3333,121.833 46.6667,121.833 48,124.5C 49.3333,121.833 50.6667,121.833 52,124.5C 53.3333,121.833 54.6667,121.833 56,124.5C 57.3333,121.833 58.6667,121.833 60,124.5C 61.3333,121.833 62.6667,121.833 64,124.5C 65.3333,121.833 66.6667,121.833 68,124.5C 69.3333,121.833 70.6667,121.833 72,124.5C 73.3333,121.833 74.6667,121.833 76,124.5C 77.3333,121.833 78.6667,121.833 80,124.5C 81.3333,121.833 82.6667,121.833 84,124.5C 85.3333,121.833 86.6667,121.833 88,124.5C 89.3333,121.833 90.6667,121.833 92,124.5C 93.3333,121.833 94.6667,121.833 96,124.5C 97.3333,121.833 98.6667,121.833 100,124.5C 101.333,121.833 102.667,121.833 104,124.5C 105.333,121.833 106.667,121.833 108,124.5C 109.333,121.833 110.667,121.833 112,124.5C 113.333,121.833 114.667,121.833 116,124.5C 117.333,121.833 118.667,121.833 120,124.5C 121.333,121.833 122.667,121.833 124,124.5C 125.333,121.833 126.667,121.833 128,124.5C 129.333,121.833 130.667,121.833 132,124.5C 133.333,121.833 134.667,121.833 136,124.5C 137.333,121.833 138.667,121.833 140,124.5C 141.333,121.833 142.667,121.833 144,124.5C 145.333,121.833 146.667,121.833 148,124.5C 149.333,121.833 150.667,121.833 152,124.5C 153.333,121.833 154.667,121.833 156,124.5C 157.333,121.833 158.667,121.833 160,124.5C 161.432,122.069 162.932,122.069 164.5,124.5 Z"/></g>
<g><path style="opacity:1" fill="#70b9c0" d="M 218.5,130.5 C 218.631,131.376 218.298,132.043 217.5,132.5C 214.216,131.93 213.216,130.263 214.5,127.5C 215.696,127.846 215.696,128.346 214.5,129C 215.901,129.41 217.234,129.91 218.5,130.5 Z"/></g>
<g><path style="opacity:1" fill="#5bbbd5" d="M 256.5,119.5 C 257.404,120.209 257.737,121.209 257.5,122.5C 257.03,128.27 254.363,132.77 249.5,136C 242.906,138.991 236.239,141.491 229.5,143.5C 227.143,143.337 224.81,143.503 222.5,144C 224.382,144.198 226.048,144.698 227.5,145.5C 214.895,149.589 206.562,145.256 202.5,132.5C 202.415,131.005 203.081,130.005 204.5,129.5C 207.143,133.977 210.643,137.643 215,140.5C 215.464,139.906 215.631,139.239 215.5,138.5C 218.833,138.167 222.167,137.833 225.5,137.5C 230.692,137.727 235.692,136.893 240.5,135C 238.5,135 236.5,135 234.5,135C 237.36,132.446 240.693,130.779 244.5,130C 243.584,129.722 242.918,129.222 242.5,128.5C 243.847,127.972 245.181,127.805 246.5,128C 243.734,133.68 244.9,133.847 250,128.5C 249.667,130.5 249.333,132.5 249,134.5C 250.646,132.391 251.812,130.057 252.5,127.5C 253.429,124.588 254.762,121.921 256.5,119.5 Z"/></g>
<g><path style="opacity:1" fill="#fafcfa" d="M 434.5,121.5 C 435.794,122.29 436.961,123.29 438,124.5C 438.667,123.833 439.333,123.167 440,122.5C 441.333,125.167 442.667,125.167 444,122.5C 445.333,125.167 446.667,125.167 448,122.5C 449.333,125.167 450.667,125.167 452,122.5C 453.333,125.167 454.667,125.167 456,122.5C 457.333,125.167 458.667,125.167 460,122.5C 461.333,125.167 462.667,125.167 464,122.5C 465.333,125.167 466.667,125.167 468,122.5C 469.333,125.167 470.667,125.167 472,122.5C 473.333,125.167 474.667,125.167 476,122.5C 477.333,125.167 478.667,125.167 480,122.5C 481.333,125.167 482.667,125.167 484,122.5C 485.333,125.167 486.667,125.167 488,122.5C 489.333,125.167 490.667,125.167 492,122.5C 493.333,125.167 494.667,125.167 496,122.5C 497.333,125.167 498.667,125.167 500,122.5C 501.333,125.167 502.667,125.167 504,122.5C 505.828,124.807 507.494,124.474 509,121.5C 510,122.5 511,123.5 512,124.5C 513.333,121.833 514.667,121.833 516,124.5C 517.333,121.833 518.667,121.833 520,124.5C 521.333,121.833 522.667,121.833 524,124.5C 525.333,121.833 526.667,121.833 528,124.5C 529.333,121.833 530.667,121.833 532,124.5C 533.333,121.833 534.667,121.833 536,124.5C 537.333,121.833 538.667,121.833 540,124.5C 541.333,121.833 542.667,121.833 544,124.5C 545.333,121.833 546.667,121.833 548,124.5C 549.333,121.833 550.667,121.833 552,124.5C 553.333,121.833 554.667,121.833 556,124.5C 557.333,121.833 558.667,121.833 560,124.5C 561.333,121.833 562.667,121.833 564,124.5C 565.333,121.833 566.667,121.833 568,124.5C 569.333,121.833 570.667,121.833 572,124.5C 573.333,121.833 574.667,121.833 576,124.5C 577.333,121.833 578.667,121.833 580,124.5C 581.333,121.833 582.667,121.833 584,124.5C 585.333,121.833 586.667,121.833 588,124.5C 589.333,121.833 590.667,121.833 592,124.5C 593.333,121.833 594.667,121.833 596,124.5C 597.039,123.29 598.206,122.29 599.5,121.5C 599.5,146.5 599.5,171.5 599.5,196.5C 598.206,195.71 597.039,194.71 596,193.5C 594.667,196.167 593.333,196.167 592,193.5C 590.667,196.167 589.333,196.167 588,193.5C 586.667,196.167 585.333,196.167 584,193.5C 582.667,196.167 581.333,196.167 580,193.5C 578.667,196.167 577.333,196.167 576,193.5C 574.667,196.167 573.333,196.167 572,193.5C 570.667,196.167 569.333,196.167 568,193.5C 566.667,196.167 565.333,196.167 564,193.5C 562.667,196.167 561.333,196.167 560,193.5C 558.667,196.167 557.333,196.167 556,193.5C 554.667,196.167 553.333,196.167 552,193.5C 550.667,196.167 549.333,196.167 548,193.5C 546.667,196.167 545.333,196.167 544,193.5C 542.667,196.167 541.333,196.167 540,193.5C 538.667,196.167 537.333,196.167 536,193.5C 534.667,196.167 533.333,196.167 532,193.5C 530.667,196.167 529.333,196.167 528,193.5C 526.667,196.167 525.333,196.167 524,193.5C 522.667,196.167 521.333,196.167 520,193.5C 518.667,196.167 517.333,196.167 516,193.5C 514.667,196.167 513.333,196.167 512,193.5C 511,194.5 510,195.5 509,196.5C 507.494,193.526 505.828,193.193 504,195.5C 502.667,192.833 501.333,192.833 500,195.5C 498.667,192.833 497.333,192.833 496,195.5C 494.667,192.833 493.333,192.833 492,195.5C 490.667,192.833 489.333,192.833 488,195.5C 486.667,192.833 485.333,192.833 484,195.5C 482.667,192.833 481.333,192.833 480,195.5C 478.667,192.833 477.333,192.833 476,195.5C 474.667,192.833 473.333,192.833 472,195.5C 470.667,192.833 469.333,192.833 468,195.5C 466.667,192.833 465.333,192.833 464,195.5C 462.667,192.833 461.333,192.833 460,195.5C 458.667,192.833 457.333,192.833 456,195.5C 454.667,192.833 453.333,192.833 452,195.5C 450.667,192.833 449.333,192.833 448,195.5C 446.667,192.833 445.333,192.833 444,195.5C 442.667,192.833 441.333,192.833 440,195.5C 438.667,192.833 437.333,192.833 436,195.5C 434.667,192.833 433.333,192.833 432,195.5C 430.667,192.833 429.333,192.833 428,195.5C 427.802,193.618 427.302,191.952 426.5,190.5C 430.622,182.636 433.455,174.303 435,165.5C 435.747,150.812 435.581,136.146 434.5,121.5 Z"/></g>
<g><path style="opacity:1" fill="#51bbd9" d="M 218.5,130.5 C 219.386,129.224 220.386,129.224 221.5,130.5C 220.575,131.562 219.575,131.562 218.5,130.5 Z"/></g>
<g><path style="opacity:1" fill="#a2b47d" d="M 221.5,128.5 C 221.5,127.833 221.833,127.5 222.5,127.5C 222.833,127.5 223.167,127.5 223.5,127.5C 224.167,127.5 224.833,127.5 225.5,127.5C 224.163,130.687 225.163,131.354 228.5,129.5C 228.577,130.75 229.244,131.583 230.5,132C 229.833,132.333 229.167,132.667 228.5,133C 230.855,134.977 232.855,134.81 234.5,132.5C 236.368,131.737 238.035,130.737 239.5,129.5C 240.391,128.89 241.391,128.557 242.5,128.5C 242.918,129.222 243.584,129.722 244.5,130C 240.693,130.779 237.36,132.446 234.5,135C 236.5,135 238.5,135 240.5,135C 235.692,136.893 230.692,137.727 225.5,137.5C 227.631,136.686 229.964,136.186 232.5,136C 230.5,135.667 228.5,135.333 226.5,135C 226.833,134 227.167,133 227.5,132C 225.793,131.805 224.126,131.805 222.5,132C 223.287,130.687 222.954,129.52 221.5,128.5 Z"/></g>
<g><path style="opacity:1" fill="#55bbd6" d="M 239.5,129.5 C 238.035,130.737 236.368,131.737 234.5,132.5C 233.761,132.631 233.094,132.464 232.5,132C 234.441,130.097 236.774,129.264 239.5,129.5 Z"/></g>
<g><path style="opacity:1" fill="#92b691" d="M 215.5,138.5 C 214.761,138.631 214.094,138.464 213.5,138C 214.863,135.871 214.529,135.371 212.5,136.5C 211.575,135.643 210.908,134.643 210.5,133.5C 210.369,132.624 210.702,131.957 211.5,131.5C 213.226,133.03 215.226,134.03 217.5,134.5C 219.575,133.238 221.575,133.405 223.5,135C 220.878,136.475 218.212,137.641 215.5,138.5 Z"/></g>
<g><path style="opacity:1" fill="#b3b369" d="M 211.5,104.5 C 210.2,105.601 209.7,106.934 210,108.5C 211.878,107.947 213.378,106.947 214.5,105.5C 215.674,106.514 216.34,107.847 216.5,109.5C 217.222,108.449 218.222,107.782 219.5,107.5C 220.338,107.842 220.672,108.508 220.5,109.5C 217.167,110.833 214.833,113.167 213.5,116.5C 213.783,117.289 214.283,117.956 215,118.5C 220.012,114.538 220.512,115.038 216.5,120C 216.833,120.333 217.167,120.667 217.5,121C 216.354,121.645 215.354,122.478 214.5,123.5C 214.184,121.162 213.184,119.496 211.5,118.5C 211.67,117.178 211.337,116.011 210.5,115C 213.105,113.069 213.105,111.236 210.5,109.5C 208.998,110.083 207.665,110.916 206.5,112C 206.833,112.333 207.167,112.667 207.5,113C 204.54,116.659 204.873,119.826 208.5,122.5C 208.5,123.167 208.167,123.5 207.5,123.5C 206.624,123.369 205.957,123.702 205.5,124.5C 206.246,125.736 206.579,127.07 206.5,128.5C 207.46,130.461 208.793,132.127 210.5,133.5C 210.908,134.643 211.575,135.643 212.5,136.5C 214.529,135.371 214.863,135.871 213.5,138C 214.094,138.464 214.761,138.631 215.5,138.5C 215.631,139.239 215.464,139.906 215,140.5C 210.643,137.643 207.143,133.977 204.5,129.5C 203.081,130.005 202.415,131.005 202.5,132.5C 201.596,131.791 201.263,130.791 201.5,129.5C 202.627,128.878 203.627,128.045 204.5,127C 203.418,125.67 202.751,124.17 202.5,122.5C 202.48,117.866 203.646,113.533 206,109.5C 207.426,107.234 209.26,105.568 211.5,104.5 Z"/></g>
<g><path style="opacity:1" fill="#75b9be" d="M 211.5,118.5 C 210.761,118.369 210.094,118.536 209.5,119C 210.8,120.579 210.466,121.745 208.5,122.5C 204.873,119.826 204.54,116.659 207.5,113C 207.167,112.667 206.833,112.333 206.5,112C 207.665,110.916 208.998,110.083 210.5,109.5C 213.105,111.236 213.105,113.069 210.5,115C 211.337,116.011 211.67,117.178 211.5,118.5 Z"/></g>
<g><path style="opacity:1" fill="#5cbad0" d="M 216.5,109.5 C 215.86,111.332 214.86,111.665 213.5,110.5C 214.325,109.614 215.325,109.281 216.5,109.5 Z"/></g>
<g><path style="opacity:1" fill="#b3b25e" d="M 229.5,143.5 C 229.167,144.5 228.5,145.167 227.5,145.5C 226.048,144.698 224.382,144.198 222.5,144C 224.81,143.503 227.143,143.337 229.5,143.5 Z"/></g>
<g><path style="opacity:1" fill="#4ebbde" d="M 224.5,170.5 C 231.461,174.756 238.794,178.422 246.5,181.5C 248.374,181.61 249.874,180.944 251,179.5C 252.757,176.986 254.257,174.319 255.5,171.5C 257.332,172.248 258.999,173.248 260.5,174.5C 249.349,187.42 242.516,202.42 240,219.5C 237.765,226.211 234.765,232.544 231,238.5C 228.549,231.596 225.549,224.93 222,218.5C 217.391,203.809 216.224,188.809 218.5,173.5C 221.313,173.975 223.313,172.975 224.5,170.5 Z"/></g>
<g><path style="opacity:1" fill="#f7fcfd" d="M 166.5,185.5 C 173.035,207.263 185.035,225.263 202.5,239.5C 223.286,256.979 247.286,263.979 274.5,260.5C 280.993,259.726 287.326,258.226 293.5,256C 299.203,252.818 305.203,250.152 311.5,248C 322.145,241.08 333.145,234.413 344.5,228C 356.416,225.519 368.749,223.852 381.5,223C 383.437,222.878 384.77,222.045 385.5,220.5C 386.151,221.091 386.818,221.757 387.5,222.5C 404.744,216.915 417.744,206.248 426.5,190.5C 427.302,191.952 427.802,193.618 428,195.5C 429.333,192.833 430.667,192.833 432,195.5C 433.333,192.833 434.667,192.833 436,195.5C 437.333,192.833 438.667,192.833 440,195.5C 441.333,192.833 442.667,192.833 444,195.5C 445.333,192.833 446.667,192.833 448,195.5C 449.333,192.833 450.667,192.833 452,195.5C 453.333,192.833 454.667,192.833 456,195.5C 457.333,192.833 458.667,192.833 460,195.5C 461.333,192.833 462.667,192.833 464,195.5C 465.333,192.833 466.667,192.833 468,195.5C 469.333,192.833 470.667,192.833 472,195.5C 473.333,192.833 474.667,192.833 476,195.5C 477.333,192.833 478.667,192.833 480,195.5C 481.333,192.833 482.667,192.833 484,195.5C 485.333,192.833 486.667,192.833 488,195.5C 489.333,192.833 490.667,192.833 492,195.5C 493.333,192.833 494.667,192.833 496,195.5C 497.333,192.833 498.667,192.833 500,195.5C 501.333,192.833 502.667,192.833 504,195.5C 505.828,193.193 507.494,193.526 509,196.5C 510,195.5 511,194.5 512,193.5C 513.333,196.167 514.667,196.167 516,193.5C 517.333,196.167 518.667,196.167 520,193.5C 521.333,196.167 522.667,196.167 524,193.5C 525.333,196.167 526.667,196.167 528,193.5C 529.333,196.167 530.667,196.167 532,193.5C 533.333,196.167 534.667,196.167 536,193.5C 537.333,196.167 538.667,196.167 540,193.5C 541.333,196.167 542.667,196.167 544,193.5C 545.333,196.167 546.667,196.167 548,193.5C 549.333,196.167 550.667,196.167 552,193.5C 553.333,196.167 554.667,196.167 556,193.5C 557.333,196.167 558.667,196.167 560,193.5C 561.333,196.167 562.667,196.167 564,193.5C 565.333,196.167 566.667,196.167 568,193.5C 569.333,196.167 570.667,196.167 572,193.5C 573.333,196.167 574.667,196.167 576,193.5C 577.333,196.167 578.667,196.167 580,193.5C 581.333,196.167 582.667,196.167 584,193.5C 585.333,196.167 586.667,196.167 588,193.5C 589.333,196.167 590.667,196.167 592,193.5C 593.333,196.167 594.667,196.167 596,193.5C 597.039,194.71 598.206,195.71 599.5,196.5C 599.5,230.833 599.5,265.167 599.5,299.5C 399.5,299.5 199.5,299.5 -0.5,299.5C -0.5,264.167 -0.5,228.833 -0.5,193.5C 1.06818,195.931 2.56818,195.931 4,193.5C 5.33333,196.167 6.66667,196.167 8,193.5C 9.33333,196.167 10.6667,196.167 12,193.5C 13.3333,196.167 14.6667,196.167 16,193.5C 17.3333,196.167 18.6667,196.167 20,193.5C 21.3333,196.167 22.6667,196.167 24,193.5C 25.3333,196.167 26.6667,196.167 28,193.5C 29.3333,196.167 30.6667,196.167 32,193.5C 33.3333,196.167 34.6667,196.167 36,193.5C 37.3333,196.167 38.6667,196.167 40,193.5C 41.3333,196.167 42.6667,196.167 44,193.5C 45.3333,196.167 46.6667,196.167 48,193.5C 49.3333,196.167 50.6667,196.167 52,193.5C 53.3333,196.167 54.6667,196.167 56,193.5C 57.3333,196.167 58.6667,196.167 60,193.5C 61.3333,196.167 62.6667,196.167 64,193.5C 65.3333,196.167 66.6667,196.167 68,193.5C 69.3333,196.167 70.6667,196.167 72,193.5C 73.3333,196.167 74.6667,196.167 76,193.5C 77.3333,196.167 78.6667,196.167 80,193.5C 81.3333,196.167 82.6667,196.167 84,193.5C 85.3333,196.167 86.6667,196.167 88,193.5C 89.3333,196.167 90.6667,196.167 92,193.5C 93.3333,196.167 94.6667,196.167 96,193.5C 97.3333,196.167 98.6667,196.167 100,193.5C 101.333,196.167 102.667,196.167 104,193.5C 105.333,196.167 106.667,196.167 108,193.5C 109.333,196.167 110.667,196.167 112,193.5C 113.333,196.167 114.667,196.167 116,193.5C 117.333,196.167 118.667,196.167 120,193.5C 121.333,196.167 122.667,196.167 124,193.5C 125.333,196.167 126.667,196.167 128,193.5C 129.333,196.167 130.667,196.167 132,193.5C 133.333,196.167 134.667,196.167 136,193.5C 137.333,196.167 138.667,196.167 140,193.5C 141.333,196.167 142.667,196.167 144,193.5C 145.333,196.167 146.667,196.167 148,193.5C 149.333,196.167 150.667,196.167 152,193.5C 153.333,196.167 154.667,196.167 156,193.5C 157.333,196.167 158.667,196.167 160,193.5C 161.333,196.167 162.667,196.167 164,193.5C 165.085,195.657 166.251,195.824 167.5,194C 165.167,191.667 162.833,189.333 160.5,187C 161.333,186.167 162.167,185.333 163,184.5C 163.953,186.373 165.12,186.706 166.5,185.5 Z"/></g>
</svg>
